<svg xmlns="http://www.w3.org/2000/svg" xmlns:svg="http://www.w3.org/2000/svg" xmlns:xlink="http://www.w3.org/1999/xlink" version="1.0" height="1334.085783163388pt" width="2370.516263163805pt" viewBox="504.483736836195 -282.99998893620034 2378.516263163805 1340.085783163388" ><defs><style type="text/css">
            @font-face {
                font-family: 'noto_regular';
                src: url('https://app.creately.com/d/assets/fonts/noto/noto-regular.woff') format('woff'),
                     url('https://app.creately.com/d/assets/fonts/noto/noto-regular.woff2') format('woff2');
                font-weight: normal;
                font-style: normal;
            }
        p {
            margin: 0;
        }
        </style></defs><defs>
        <style>
            span{ display: inline-block; }
            
        </style>
        
        </defs><g id="vsS4w3KLhf6"><g transform="translate(839.9999999999998 380.68192953347847)"><rect x="0" y="0" width="132.19678411086886" height="79.31807046652132" fill="rgb(148,71,99)" stroke="#7b3b52" stroke-width="2" stroke-linecap="round" stroke-linejoin="round" stroke-dasharray="0 0"/></g><g transform="translate(876.5083920554342, 411.34096476673915) rotate(0, 29.59, 9)" width="59.18" height="18"><text text-decoration="none" x="0.004062499999999858" fill="#ffffff" font-size="10pt" font-family="noto_regular"  y="14">STUDENT</text><text text-decoration="none" x="59.1759375" fill="#4b4b4b" font-size="10pt" font-family="noto_regular"  y="14"></text></g></g><g id="fmQyJaKLDXN"><g transform="translate(560 111.8568421081469)"><ellipse cx="65.11929824321085" cy="39.07157894592651" rx="65.11929824321085" ry="39.07157894592651" fill="rgb(191,112,151)" stroke="#944763" stroke-width="2" stroke-linecap="round" stroke-linejoin="round" stroke-dasharray="0 0"/></g><g transform="translate(581.4592982432108, 138.42842105407343) rotate(0, 43.66, 12.5)" width="87.32" height="25"><text text-decoration="underline" x="0.0037499999999965894" fill="#ffffff" font-weight="bold" font-size="14pt" font-family="noto_regular"  y="20">neptun_id</text><text text-decoration="none" x="87.31625" fill="#4b4b4b" font-size="10pt" font-family="noto_regular"  y="20"></text></g></g><g id="rvD7r7Qkgb8"><g><path d="M 840,420 L 677,174" fill="none" stroke="#1a1a1a" stroke-width="2" stroke-linecap="round" stroke-linejoin="round" stroke-dasharray="0 0"/></g></g><g id="rDY5w4iNYpo"><g transform="translate(519.5338362845855 309.99999999999994)"><ellipse cx="85.3599968577072" cy="32.778682408866224" rx="85.3599968577072" ry="32.778682408866224" fill="rgb(191,112,151)" stroke="#944763" stroke-width="2" stroke-linecap="round" stroke-linejoin="round" stroke-dasharray="0 0"/></g><g transform="translate(558.7588331422927, 330.2786824088662) rotate(0, 46.135, 12.5)" width="92.27" height="25"><text text-decoration="none" x="0.0021874999999980105" fill="#ffffff" font-size="14pt" font-family="noto_regular"  y="20">first_name</text><text text-decoration="none" x="92.26781249999999" fill="#4b4b4b" font-size="10pt" font-family="noto_regular"  y="20"></text></g></g><g id="sfva1WGZnln"><g><path d="M 840,420 L 690,343" fill="none" stroke="#1a1a1a" stroke-width="2" stroke-linecap="round" stroke-linejoin="round" stroke-dasharray="0 0"/></g></g><g id="0gSe7qcbaE3"><g transform="translate(509.483736836195 390.00000000000006)"><ellipse cx="95.41009316380496" cy="32.6580734546147" rx="95.41009316380496" ry="32.6580734546147" fill="rgb(191,112,151)" stroke="#944763" stroke-width="2" stroke-linecap="round" stroke-linejoin="round" stroke-dasharray="0 0"/></g><g transform="translate(560.58883, 410.15807345461474) rotate(0, 44.305, 12.5)" width="88.61" height="25"><text text-decoration="none" x="0.0003124999999997158" fill="#ffffff" font-size="14pt" font-family="noto_regular"  y="20">last_name</text><text text-decoration="none" x="88.6096875" fill="#4b4b4b" font-size="10pt" font-family="noto_regular"  y="20"></text></g></g><g id="dpDXYL4jggW"><g><path d="M 840,420 L 700,423" fill="none" stroke="#1a1a1a" stroke-width="2" stroke-linecap="round" stroke-linejoin="round" stroke-dasharray="0 0"/></g></g><g id="lLB1ipf60ez"><g transform="translate(530 220)"><ellipse cx="80.3815641511016" cy="30.620166803477396" rx="80.3815641511016" ry="30.620166803477396" fill="rgb(191,112,151)" stroke="#944763" stroke-width="2" stroke-linecap="round" stroke-linejoin="round" stroke-dasharray="0 0"/></g><g transform="translate(542.8165641511016, 238.1201668034774) rotate(0, 67.565, 12.5)" width="135.13" height="25"><text text-decoration="none" x="0.0024999999999977263" fill="#ffffff" font-size="14pt" font-family="noto_regular"  y="20">hash_password</text><text text-decoration="none" x="135.1275" fill="#4b4b4b" font-size="10pt" font-family="noto_regular"  y="20"></text></g></g><g id="ZKOe9Qxi4fY"><mask id="f7069" x="661" y="255" width="193" height="179" maskUnits="userSpaceOnUse"><rect x="661" y="255" width="193" height="179" fill="white" />undefinedundefinedundefinedundefinedundefined</mask><g mask="url(#f7069)"><path d="M 675,269 L 840,420" fill="none" stroke="rgba(26,26,26,0)" stroke-width="2" stroke-linecap="round" stroke-linejoin="round" stroke-dasharray="0 0"/><path d="M 840,420 L 837.469114189733,409.88706354489125 L 829.7035349390341,418.36914930849406 Z" fill="rgba(26,26,26,0)" stroke="rgba(26,26,26,0)" stroke-width="2" stroke-linecap="round" stroke-linejoin="round"/></g>undefinedundefinedundefinedundefinedundefined</g><g id="csa9WidCGDe"><g><path d="M 675,269 L 840,420" fill="none" stroke="#1a1a1a" stroke-width="2" stroke-linecap="round" stroke-linejoin="round" stroke-dasharray="0 0"/></g></g><g id="PTeTNTJxsTR"><g transform="translate(519.5591735097374 490.00000000000006)"><ellipse cx="85.34732824513128" cy="30.112395094014552" rx="85.34732824513128" ry="30.112395094014552" fill="rgb(191,112,151)" stroke="#944763" stroke-width="2" stroke-linecap="round" stroke-linejoin="round" stroke-dasharray="0 0"/></g><g transform="translate(555.0365017548687, 507.6123950940146) rotate(0, 49.87, 12.5)" width="99.74" height="25"><text text-decoration="none" x="0.002812499999997442" fill="#ffffff" font-size="14pt" font-family="noto_regular"  y="20">user_status</text><text text-decoration="none" x="99.7371875" fill="#4b4b4b" font-size="10pt" font-family="noto_regular"  y="20"></text></g></g><g id="qnwwMxyuY1Q"><g><path d="M 690,520 L 840,420" fill="none" stroke="#1a1a1a" stroke-width="2" stroke-linecap="round" stroke-linejoin="round" stroke-dasharray="0 0"/></g></g><g id="21v0woGxEk4"><g transform="translate(1529.9999999999998 93.08836484332716)"><rect x="0" y="0" width="130.23196464861363" height="78.13917878916817" fill="rgb(198,156,94)" stroke="#8d5e3e" stroke-width="2" stroke-linecap="round" stroke-linejoin="round" stroke-dasharray="0 0"/></g><g transform="translate(1577.1909823243066, 123.15795423791124) rotate(0, 17.925, 9)" width="35.85" height="18"><text text-decoration="none" x="0.0031250000000007105" fill="#ffffff" font-size="10pt" font-family="noto_regular"  y="14">EXAM</text><text text-decoration="none" x="35.846875" fill="#4b4b4b" font-size="10pt" font-family="noto_regular"  y="14"></text></g></g><g id="htswn5npVim"><g transform="translate(1110 -129.99999999999994)"><ellipse cx="50" cy="30" rx="50" ry="30" fill="rgb(198,156,94)" stroke="#8d5e3e" stroke-width="2" stroke-linecap="round" stroke-linejoin="round" stroke-dasharray="0 0"/></g><g transform="translate(1118.535, -112.49999999999994) rotate(0, 41.465, 12.5)" width="82.93" height="25"><text text-decoration="underline" x="0.004062500000003411" fill="#ffffff" font-weight="bold" font-size="14pt" font-family="noto_regular"  y="20">course_id</text><text text-decoration="none" x="82.9259375" fill="#4b4b4b" font-size="10pt" font-family="noto_regular"  y="20"></text></g></g><g id="7nqMuNlpp7x"><g><path d="M 1595,93 L 1210,-100" fill="none" stroke="#1a1a1a" stroke-width="2" stroke-linecap="round" stroke-linejoin="round" stroke-dasharray="0 0"/></g></g><g id="crp4dKY6QK6"><g transform="translate(1180 -220.00000999999992)"><ellipse cx="69.9992104535977" cy="31.54226180671455" rx="69.9992104535977" ry="31.54226180671455" fill="rgb(198,156,94)" stroke="#8d5e3e" stroke-width="2" stroke-linecap="round" stroke-linejoin="round" stroke-dasharray="0 0"/></g><g transform="translate(1233.1842104535976, -200.95774819328537) rotate(0, 16.815, 12.5)" width="33.63" height="25"><text text-decoration="none" x="0.002500000000001279" fill="#ffffff" font-size="14pt" font-family="noto_regular"  y="20">title</text><text text-decoration="none" x="33.6275" fill="#4b4b4b" font-size="10pt" font-family="noto_regular"  y="20"></text></g></g><g id="brMP8sl9OTe"><g transform="translate(1574.873094314232 809.9999999999998)"><rect x="0" y="0" width="126.15038756171326" height="80.27769580566506" fill="rgb(127,127,206)" stroke="#5954a6" stroke-width="2" stroke-linecap="round" stroke-linejoin="round" stroke-dasharray="0 0"/></g><g transform="translate(1596.9682880950886, 841.1388479028324) rotate(0, 40.98, 9)" width="81.96" height="18"><text text-decoration="none" x="0.0034374999999968736" fill="#ffffff" font-size="10pt" font-family="noto_regular"  y="14">INSTRUCTOR</text><text text-decoration="none" x="81.95656249999999" fill="#4b4b4b" font-size="10pt" font-family="noto_regular"  y="14"></text></g></g><g id="hQBGNlt5DYp"><g transform="translate(999.9999999999999 949.9999999999995)"><ellipse cx="75.00084865355366" cy="29.071649642182113" rx="75.00084865355366" ry="29.071649642182113" fill="rgb(127,127,206)" stroke="#5954a6" stroke-width="2" stroke-linecap="round" stroke-linejoin="round" stroke-dasharray="0 0"/></g><g transform="translate(1048.3958486535535, 966.5716496421817) rotate(0, 26.605, 12.5)" width="53.21" height="25"><text text-decoration="underline" x="0.0034375000000004263" fill="#ffffff" font-weight="bold" font-size="14pt" font-family="noto_regular"  y="20">profid</text><text text-decoration="none" x="53.206562500000004" fill="#4b4b4b" font-size="10pt" font-family="noto_regular"  y="20"></text></g></g><g id="lEcSouGguBU"><g transform="translate(1360 989.3008899999998)"><ellipse cx="90.33081528863323" cy="32.392452113593905" rx="90.33081528863323" ry="32.392452113593905" fill="rgb(127,127,206)" stroke="#5954a6" stroke-width="2" stroke-linecap="round" stroke-linejoin="round" stroke-dasharray="0 0"/></g><g transform="translate(1404.1958152886332, 1009.1933421135936) rotate(0, 46.135, 12.5)" width="92.27" height="25"><text text-decoration="none" x="0.0021874999999980105" fill="#ffffff" font-size="14pt" font-family="noto_regular"  y="20">first_name</text><text text-decoration="none" x="92.26781249999999" fill="#4b4b4b" font-size="10pt" font-family="noto_regular"  y="20"></text></g></g><g id="gK9NkzLEjLU"><g transform="translate(1555.650684301259 993.3976585377688)"><ellipse cx="72.6863978493706" cy="30.344065731115506" rx="72.6863978493706" ry="30.344065731115506" fill="rgb(127,127,206)" stroke="#5954a6" stroke-width="2" stroke-linecap="round" stroke-linejoin="round" stroke-dasharray="0 0"/></g><g transform="translate(1584.0320821506295, 1011.2417242688844) rotate(0, 44.305, 12.5)" width="88.61" height="25"><text text-decoration="none" x="0.0003124999999997158" fill="#ffffff" font-size="14pt" font-family="noto_regular"  y="20">last_name</text><text text-decoration="none" x="88.6096875" fill="#4b4b4b" font-size="10pt" font-family="noto_regular"  y="20"></text></g></g><g id="Ql4dlVU8dAY"><g transform="translate(1160 980)"><ellipse cx="94.99995741488735" cy="35.00206474123522" rx="94.99995741488735" ry="35.00206474123522" fill="rgb(127,127,206)" stroke="#5954a6" stroke-width="2" stroke-linecap="round" stroke-linejoin="round" stroke-dasharray="0 0"/></g><g transform="translate(1187.4349574148873, 1002.5020647412352) rotate(0, 67.565, 12.5)" width="135.13" height="25"><text text-decoration="none" x="0.0024999999999977263" fill="#ffffff" font-size="14pt" font-family="noto_regular"  y="20">hash_password</text><text text-decoration="none" x="135.1275" fill="#4b4b4b" font-size="10pt" font-family="noto_regular"  y="20"></text></g></g><g id="04V3ADkSL5h"><mask id="6da0f" x="1336" y="836" width="253" height="193" maskUnits="userSpaceOnUse"><rect x="1336" y="836" width="253" height="193" fill="white" />undefinedundefinedundefinedundefinedundefined</mask><g mask="url(#6da0f)"><path d="M 1350,1015 L 1575,850" fill="none" stroke="rgba(26,26,26,0)" stroke-width="2" stroke-linecap="round" stroke-linejoin="round" stroke-dasharray="0 0"/><path d="M 1575,850 L 1564.587377660947,850.5041455681973 L 1571.3868855159872,859.7786640424496 Z" fill="rgba(26,26,26,0)" stroke="rgba(26,26,26,0)" stroke-width="2" stroke-linecap="round" stroke-linejoin="round"/></g>undefinedundefinedundefinedundefinedundefined</g><g id="RoeDuqnKfKr"><g transform="translate(2100 969.9999999999998)"><ellipse cx="79.81073033214788" cy="36.14275996451996" rx="79.81073033214788" ry="36.14275996451996" fill="rgb(127,127,206)" stroke="#5954a6" stroke-width="2" stroke-linecap="round" stroke-linejoin="round" stroke-dasharray="0 0"/></g><g transform="translate(2129.9407303321477, 993.6427599645198) rotate(0, 49.87, 12.5)" width="99.74" height="25"><text text-decoration="none" x="0.002812499999997442" fill="#ffffff" font-size="14pt" font-family="noto_regular"  y="20">user_status</text><text text-decoration="none" x="99.7371875" fill="#4b4b4b" font-size="10pt" font-family="noto_regular"  y="20"></text></g></g><g id="7Pud8zgrSR1"><g transform="translate(1732.4365606300462 990)"><ellipse cx="77.56343936995387" cy="29.99240731748304" rx="77.56343936995387" ry="29.99240731748304" fill="rgb(127,127,206)" stroke="#5954a6" stroke-width="2" stroke-linecap="round" stroke-linejoin="round" stroke-dasharray="0 0"/></g><g transform="translate(1757.675, 1007.4924073174831) rotate(0, 52.325, 12.5)" width="104.65" height="25"><text text-decoration="none" x="0.004687500000002842" fill="#ffffff" font-size="14pt" font-family="noto_regular"  y="20">department</text><text text-decoration="none" x="104.6453125" fill="#4b4b4b" font-size="10pt" font-family="noto_regular"  y="20"></text></g></g><g id="gbRHkTIEGIW"><g transform="translate(1900 980)"><ellipse cx="75.00898733913479" cy="34.752453168021596" rx="75.00898733913479" ry="34.752453168021596" fill="rgb(127,127,206)" stroke="#5954a6" stroke-width="2" stroke-linecap="round" stroke-linejoin="round" stroke-dasharray="0 0"/></g><g transform="translate(1950.7889873391348, 1002.2524531680216) rotate(0, 24.22, 12.5)" width="48.44" height="25"><text text-decoration="none" x="0.0012499999999988631" fill="#ffffff" font-size="14pt" font-family="noto_regular"  y="20">office</text><text text-decoration="none" x="48.43875" fill="#4b4b4b" font-size="10pt" font-family="noto_regular"  y="20"></text></g></g><g id="oLnowjfW10g"><g transform="translate(1320 -279.99998893620034)"><ellipse cx="89.99999548660995" cy="29.999988936200463" rx="89.99999548660995" ry="29.999988936200463" fill="rgb(198,156,94)" stroke="#8d5e3e" stroke-width="2" stroke-linecap="round" stroke-linejoin="round" stroke-dasharray="0 0"/></g><g transform="translate(1389.9199954866099, -262.4999999999999) rotate(0, 20.08, 12.5)" width="40.16" height="25"><text text-decoration="none" x="0.0018749999999982947" fill="#ffffff" font-size="14pt" font-family="noto_regular"  y="20">level</text><text text-decoration="none" x="40.158125" fill="#4b4b4b" font-size="10pt" font-family="noto_regular"  y="20"></text></g></g><g id="8I3bV3qhYUa"><g><path d="M 1595,93 L 1482,-232" fill="none" stroke="#1a1a1a" stroke-width="2" stroke-linecap="round" stroke-linejoin="round" stroke-dasharray="0 0"/></g></g><g id="0E9QSc8sepn"><g transform="translate(1530 -273.0896317230921)"><ellipse cx="94.999236347946" cy="26.54369586154605" rx="94.999236347946" ry="26.54369586154605" fill="rgb(198,156,94)" stroke="#8d5e3e" stroke-width="2" stroke-linecap="round" stroke-linejoin="round" stroke-dasharray="0 0"/></g><g transform="translate(1572.139236347946, -259.04593586154607) rotate(0, 52.86, 12.5)" width="105.72" height="25"><text text-decoration="none" x="0.0006249999999994316" fill="#ffffff" font-size="14pt" font-family="noto_regular"  y="20">kredit_value</text><text text-decoration="none" x="105.719375" fill="#4b4b4b" font-size="10pt" font-family="noto_regular"  y="20"></text></g></g><g id="7KGdXYLdYKS"><g><path d="M 1595,93 L 1625,-220" fill="none" stroke="#1a1a1a" stroke-width="2" stroke-linecap="round" stroke-linejoin="round" stroke-dasharray="0 0"/></g></g><g id="9Ag2jqBaVhI"><g><path d="M 1638,890 L 1075,950" fill="none" stroke="#1a1a1a" stroke-width="2" stroke-linecap="round" stroke-linejoin="round" stroke-dasharray="0 0"/></g></g><g id="wV9VyX0dEQQ"><g><path d="M 1638,890 L 1255,980" fill="none" stroke="#1a1a1a" stroke-width="2" stroke-linecap="round" stroke-linejoin="round" stroke-dasharray="0 0"/></g></g><g id="KqpEaKcsYXn"><g><path d="M 1638,890 L 1450,989" fill="none" stroke="#1a1a1a" stroke-width="2" stroke-linecap="round" stroke-linejoin="round" stroke-dasharray="0 0"/></g></g><g id="bAruIAtBTcH"><g><path d="M 1638,890 L 1628,993" fill="none" stroke="#1a1a1a" stroke-width="2" stroke-linecap="round" stroke-linejoin="round" stroke-dasharray="0 0"/></g></g><g id="QLc2iBU1rnd"><g><path d="M 1638,890 L 1810,990" fill="none" stroke="#1a1a1a" stroke-width="2" stroke-linecap="round" stroke-linejoin="round" stroke-dasharray="0 0"/></g></g><g id="DJn3MhRwF8f"><g><path d="M 1638,890 L 1975,980" fill="none" stroke="#1a1a1a" stroke-width="2" stroke-linecap="round" stroke-linejoin="round" stroke-dasharray="0 0"/></g></g><g id="JRcBKipJWlM"><g><path d="M 1638,890 L 2180,970" fill="none" stroke="#1a1a1a" stroke-width="2" stroke-linecap="round" stroke-linejoin="round" stroke-dasharray="0 0"/></g></g><g id="F5udYFxuWJv"><g><path d="M 1278,-159 L 1595,93" fill="none" stroke="#1a1a1a" stroke-width="2" stroke-linecap="round" stroke-linejoin="round" stroke-dasharray="0 0"/></g></g><g id="ReXBJCkUj4i"><g transform="translate(2360 365.5991058954158)"><rect x="0" y="0" width="140.66815684097415" height="84.4008941045845" fill="rgb(107,165,183)" stroke="#466b7b" stroke-width="2" stroke-linecap="round" stroke-linejoin="round" stroke-dasharray="0 0"/></g><g transform="translate(2392.994078420487, 398.79955294770804) rotate(0, 37.34, 9)" width="74.68" height="18"><text text-decoration="none" x="0.004062500000003411" fill="#ffffff" font-size="10pt" font-family="noto_regular"  y="14">QUESTIONS</text><text text-decoration="none" x="74.6759375" fill="#4b4b4b" font-size="10pt" font-family="noto_regular"  y="14"></text></g></g><g id="LWFewzkE3aq"><g transform="translate(2639.668156840974 160)"><ellipse cx="104.99999999999979" cy="30" rx="104.99999999999979" ry="30" fill="rgb(196,231,236)" stroke="#578598" stroke-width="2" stroke-linecap="round" stroke-linejoin="round" stroke-dasharray="0 0"/></g><g transform="translate(2736.518156840974, 177.5) rotate(0, 8.15, 12.5)" width="16.3" height="25"><text text-decoration="underline" x="0.0015625000000003553" fill="rgb(69, 85, 105)" font-weight="bold" font-size="14pt" font-family="noto_regular"  y="20">id</text><text text-decoration="none" x="16.2984375" fill="#4b4b4b" font-size="10pt" font-family="noto_regular"  y="20"></text></g></g><g id="rsq2gIU82cm"><g><path d="M 2501,408 L 2661,208" fill="none" stroke="#1a1a1a" stroke-width="2" stroke-linecap="round" stroke-linejoin="round" stroke-dasharray="0 0"/></g></g><g id="gYw4w4aeAYI"><g transform="translate(2649.668156840973 250.00000000000006)"><ellipse cx="104.99999999999979" cy="30" rx="104.99999999999979" ry="30" fill="rgb(196,231,236)" stroke="#578598" stroke-width="2" stroke-linecap="round" stroke-linejoin="round" stroke-dasharray="0 0"/></g><g transform="translate(2716.2381568409733, 267.50000000000006) rotate(0, 38.43, 12.5)" width="76.86" height="25"><text text-decoration="none" x="0.0003124999999997158" fill="rgb(69, 85, 105)" font-size="14pt" font-family="noto_regular"  y="20">question</text><text text-decoration="none" x="76.8596875" fill="#4b4b4b" font-size="10pt" font-family="noto_regular"  y="20"></text></g></g><g id="3QdZ2F65E7y"><g><path d="M 2501,408 L 2650,280" fill="none" stroke="#1a1a1a" stroke-width="2" stroke-linecap="round" stroke-linejoin="round" stroke-dasharray="0 0"/></g></g><g id="NLJry5QHJBF"><g transform="translate(2670 440.00000000000017)"><ellipse cx="104.99999999999979" cy="30" rx="104.99999999999979" ry="30" fill="rgb(196,231,236)" stroke="#578598" stroke-width="2" stroke-linecap="round" stroke-linejoin="round" stroke-dasharray="0 0"/></g><g transform="translate(2739.52, 457.50000000000017) rotate(0, 35.48, 12.5)" width="70.96" height="25"><text text-decoration="none" x="0.0034374999999968736" fill="#3b5865" font-size="14pt" font-family="noto_regular"  y="20">solution</text><text text-decoration="none" x="70.95656249999999" fill="#4b4b4b" font-size="10pt" font-family="noto_regular"  y="20"></text></g></g><g id="8q86WEpOJcR"><g><path d="M 2501,408 L 2670,470" fill="none" stroke="#1a1a1a" stroke-width="2" stroke-linecap="round" stroke-linejoin="round" stroke-dasharray="0 0"/></g></g><g id="0I7f2nthqeE"><g transform="translate(1730.0015877633496 -250)"><ellipse cx="84.99920611832525" cy="29.997760005321744" rx="84.99920611832525" ry="29.997760005321744" fill="rgb(198,156,94)" stroke="#8d5e3e" stroke-width="2" stroke-linecap="round" stroke-linejoin="round" stroke-dasharray="0 0"/></g><g transform="translate(1771.1057938816748, -232.50223999467826) rotate(0, 43.895, 12.5)" width="87.79" height="25"><text text-decoration="none" x="0.004375000000003126" fill="#ffffff" font-size="14pt" font-family="noto_regular"  y="20">start_time</text><text text-decoration="none" x="87.78562500000001" fill="#4b4b4b" font-size="10pt" font-family="noto_regular"  y="20"></text></g></g><g id="btaTMx0DnqW"><mask id="9d235" x="1581" y="-216" width="180" height="323" maskUnits="userSpaceOnUse"><rect x="1581" y="-216" width="180" height="323" fill="white" />undefined</mask><g mask="url(#9d235)"><path d="M 1595,93 L 1747,-202" fill="none" stroke="#1a1a1a" stroke-width="2" stroke-linecap="round" stroke-linejoin="round" stroke-dasharray="0 0"/></g>undefined</g><g id="zrmA8u9v3VI"><g transform="translate(2670 519.9999999999998)"><ellipse cx="104.99999999999979" cy="30" rx="104.99999999999979" ry="30" fill="rgb(196,231,236)" stroke="#578598" stroke-width="2" stroke-linecap="round" stroke-linejoin="round" stroke-dasharray="0 0"/></g><g transform="translate(2724.825, 537.4999999999998) rotate(0, 50.175, 12.5)" width="100.35" height="25"><text text-decoration="none" x="0.003124999999997158" fill="#3b5865" font-size="14pt" font-family="noto_regular"  y="20">point_value</text><text text-decoration="none" x="100.346875" fill="#4b4b4b" font-size="10pt" font-family="noto_regular"  y="20"></text></g></g><g id="fQbi8Koehqf"><g><path d="M 2501,408 L 2670,550" fill="none" stroke="#1a1a1a" stroke-width="2" stroke-linecap="round" stroke-linejoin="round" stroke-dasharray="0 0"/></g></g><g id="a1DXrc4HaTx"><g transform="translate(1900 -206.54787242858498)"><ellipse cx="79.99988996505189" cy="26.543852428585073" rx="79.99988996505189" ry="26.543852428585073" fill="rgb(198,156,94)" stroke="#8d5e3e" stroke-width="2" stroke-linecap="round" stroke-linejoin="round" stroke-dasharray="0 0"/></g><g transform="translate(1939.629889965052, -192.5040199999999) rotate(0, 40.37, 12.5)" width="80.74" height="25"><text text-decoration="none" x="0.002812499999997442" fill="#ffffff" font-size="14pt" font-family="noto_regular"  y="20">end_time</text><text text-decoration="none" x="80.7371875" fill="#4b4b4b" font-size="10pt" font-family="noto_regular"  y="20"></text></g></g><g id="7RUv5zHrg2s"><mask id="7795e" x="1581" y="-194" width="333" height="301" maskUnits="userSpaceOnUse"><rect x="1581" y="-194" width="333" height="301" fill="white" />undefined</mask><g mask="url(#7795e)"><path d="M 1595,93 L 1900,-180" fill="none" stroke="#1a1a1a" stroke-width="2" stroke-linecap="round" stroke-linejoin="round" stroke-dasharray="0 0"/></g>undefined</g><g id="FrH3uHv7FVP"><g transform="translate(2090 -180.0040242993964)"><ellipse cx="80.00075814861854" cy="30.002012149698448" rx="80.00075814861854" ry="30.002012149698448" fill="rgb(198,156,94)" stroke="#8d5e3e" stroke-width="2" stroke-linecap="round" stroke-linejoin="round" stroke-dasharray="0 0"/></g><g transform="translate(2127.090758148619, -162.50201214969798) rotate(0, 42.91, 12.5)" width="85.82" height="25"><text text-decoration="none" x="0.0037499999999965894" fill="#ffffff" font-size="14pt" font-family="noto_regular"  y="20">time_limit</text><text text-decoration="none" x="85.81625" fill="#4b4b4b" font-size="10pt" font-family="noto_regular"  y="20"></text></g></g><g id="q96cilof2DF"><g><path d="M 1595,93 L 2090,-150" fill="none" stroke="#1a1a1a" stroke-width="2" stroke-linecap="round" stroke-linejoin="round" stroke-dasharray="0 0"/></g></g><g id="oiKbBmqnt77"><g transform="translate(1120.3419177964097 250.00000000000006)"><path d="M 199.31616440718042,49.829041101795106 L 99.65808220359021,99.65808220359021 L 0,49.829041101795106 L 99.65808220359021,0 L 199.31616440718042,49.829041101795106 L 199.31616440718042,49.829041101795106 Z" fill="rgb(192,109,105)" stroke="#904640" stroke-width="2" stroke-linecap="round" stroke-linejoin="round" stroke-dasharray="0 0"/></g><g transform="translate(1191.23, 290.82904110179516) rotate(0, 28.77, 9)" width="57.54" height="18"><text text-decoration="none" x="0.004374999999999574" fill="#ffffff" font-size="10pt" font-family="noto_regular"  y="14">ENROLLS</text><text text-decoration="none" x="57.535624999999996" fill="#4b4b4b" font-size="10pt" font-family="noto_regular"  y="14"></text></g></g><g id="ABtT2O92sqs"><mask id="f9a91" x="958" y="286" width="176" height="148" maskUnits="userSpaceOnUse"><rect x="958" y="286" width="176" height="148" fill="white" />undefinedundefinedundefined</mask><g mask="url(#f9a91)"><path d="M 1120,300 L 1046.269350953639,299.82904110179516 L 1046,360 L 1046.269350953639,420.34096476673915 L 972,420" fill="none" stroke="#1a1a1a" stroke-width="2" stroke-linecap="round" stroke-linejoin="round" stroke-dasharray="0 0"/><path d="M 972,425.75 L 982,420 L 972,420 M 982,420 L 972,414.25" fill="none" stroke="#1a1a1a" stroke-width="2" stroke-linecap="round" stroke-linejoin="round"/><circle cx="987" cy="420" r="5.75" fill="rgb(255,255,255)" stroke="#1a1a1a" stroke-width="2" stroke-linecap="round" stroke-linejoin="round"/><path d="Z" fill="none" stroke="#1a1a1a" stroke-width="2" stroke-linecap="round" stroke-linejoin="round"/></g>undefinedundefinedundefined</g><g id="cqffcZ3Yu5s"><mask id="7ac10" x="1306" y="116" width="234" height="198" maskUnits="userSpaceOnUse"><rect x="1306" y="116" width="234" height="198" fill="white" />undefinedundefinedundefined</mask><g mask="url(#7ac10)"><path d="M 1320,300 L 1422.74670597175,299.82904110179516 L 1423,215 L 1422.74670597175,129.59467446474048 L 1526,130" fill="none" stroke="#1a1a1a" stroke-width="2" stroke-linecap="round" stroke-linejoin="round" stroke-dasharray="0 0"/><path d="M 1526,124.25 L 1516,130 L 1526,130 M 1516,130 L 1526,135.75" fill="none" stroke="#1a1a1a" stroke-width="2" stroke-linecap="round" stroke-linejoin="round"/><circle cx="1511" cy="130" r="5.75" fill="rgb(255,255,255)" stroke="#1a1a1a" stroke-width="2" stroke-linecap="round" stroke-linejoin="round"/><path d="Z" fill="none" stroke="#1a1a1a" stroke-width="2" stroke-linecap="round" stroke-linejoin="round"/></g>undefinedundefinedundefined</g><g id="D7GcEUndNGr"><g transform="translate(1500 479.99999999999994)"><path d="M 221.99007211568588,55.49751802892147 L 110.99503605784294,110.99503605784294 L 0,55.49751802892147 L 110.99503605784294,0 L 221.99007211568588,55.49751802892147 L 221.99007211568588,55.49751802892147 Z" fill="rgb(192,109,105)" stroke="#904640" stroke-width="2" stroke-linecap="round" stroke-linejoin="round" stroke-dasharray="0 0"/></g><g transform="translate(1554.235036057843, 526.4975180289214) rotate(0, 56.76, 9)" width="113.52" height="18"><text text-decoration="none" x="0.0021874999999980105" fill="#ffffff" font-size="10pt" font-family="noto_regular"  y="14">ADMINISTRATION</text><text text-decoration="none" x="113.51781249999999" fill="#4b4b4b" font-size="10pt" font-family="noto_regular"  y="14"></text></g></g><g id="WyrIwnYSwZF"><mask id="c15d7" x="1597" y="577" width="55" height="247" maskUnits="userSpaceOnUse"><rect x="1597" y="577" width="55" height="247" fill="white" />undefinedundefinedundefined</mask><g mask="url(#c15d7)"><path d="M 1611,591 L 1610.995036057843,700.4975180289214 L 1624,700 L 1637.9482880950886,700.4975180289214 L 1638,810" fill="none" stroke="#1a1a1a" stroke-width="2" stroke-linecap="round" stroke-linejoin="round" stroke-dasharray="0 0"/><path d="M 1643.75,810 L 1638,800 L 1632.25,810 M 1643.75,800 L 1632.25,800 Z" fill="none" stroke="#1a1a1a" stroke-width="2" stroke-linecap="round" stroke-linejoin="round"/></g>undefinedundefinedundefined</g><g id="Oq3WSX591mt"><mask id="9c6d0" x="1581" y="157" width="44" height="337" maskUnits="userSpaceOnUse"><rect x="1581" y="157" width="44" height="337" fill="white" />undefinedundefinedundefined</mask><g mask="url(#9c6d0)"><path d="M 1611,480 L 1610.995036057843,325.61377181624766 L 1603,326 L 1595.1159823243065,325.61377181624766 L 1595,171" fill="none" stroke="#1a1a1a" stroke-width="2" stroke-linecap="round" stroke-linejoin="round" stroke-dasharray="0 0"/><path d="M 1589.25,171 L 1595,181 L 1595,171 M 1595,181 L 1600.75,171" fill="none" stroke="#1a1a1a" stroke-width="2" stroke-linecap="round" stroke-linejoin="round"/><circle cx="1595" cy="186" r="5.75" fill="rgb(255,255,255)" stroke="#1a1a1a" stroke-width="2" stroke-linecap="round" stroke-linejoin="round"/><path d="Z" fill="none" stroke="#1a1a1a" stroke-width="2" stroke-linecap="round" stroke-linejoin="round"/></g>undefinedundefinedundefined</g><g id="WeRCwDRoKLX"><g transform="translate(1930 280.00000000000006)"><path d="M 200.79829563276704,50.19957390819176 L 100.39914781638352,100.39914781638352 L 0,50.19957390819176 L 100.39914781638352,0 L 200.79829563276704,50.19957390819176 L 200.79829563276704,50.19957390819176 Z" fill="rgb(196,108,119)" stroke="#934450" stroke-width="2" stroke-linecap="round" stroke-linejoin="round" stroke-dasharray="0 0"/></g><g transform="translate(1998.2641478163835, 321.19957390819184) rotate(0, 32.135, 9)" width="64.27" height="18"><text text-decoration="none" x="0.0021874999999980105" fill="#ffffff" font-size="10pt" font-family="noto_regular"  y="14">INCLUDES</text><text text-decoration="none" x="64.26781249999999" fill="#4b4b4b" font-size="10pt" font-family="noto_regular"  y="14"></text></g></g><g id="B2JFB6P3TOV"><mask id="dce43" x="2117" y="316" width="251" height="105" maskUnits="userSpaceOnUse"><rect x="2117" y="316" width="251" height="105" fill="white" />undefinedundefinedundefined</mask><g mask="url(#dce43)"><path d="M 2131,330 L 2242.329264937213,330.19957390819184 L 2242,369 L 2242.329264937213,407.4837821084279 L 2354,407" fill="none" stroke="#1a1a1a" stroke-width="2" stroke-linecap="round" stroke-linejoin="round" stroke-dasharray="0 0"/><path d="M 2354,401.25 L 2344,407 L 2354,412.75 M 2344,401.25 L 2344,412.75 Z" fill="none" stroke="#1a1a1a" stroke-width="2" stroke-linecap="round" stroke-linejoin="round"/></g>undefinedundefinedundefined</g><g id="Wfvh1w9vc7k"><mask id="d2374" x="1646" y="118" width="298" height="226" maskUnits="userSpaceOnUse"><rect x="1646" y="118" width="298" height="226" fill="white" />undefinedundefinedundefined</mask><g mask="url(#d2374)"><path d="M 1930,330 L 1795.1159823243067,330.19957390819184 L 1795,231 L 1795.1159823243067,132.15795423791124 L 1660,132" fill="none" stroke="#1a1a1a" stroke-width="2" stroke-linecap="round" stroke-linejoin="round" stroke-dasharray="0 0"/><path d="M 1665,137.75 L 1665,126.25 M 1670,137.75 L 1670,126.25 Z" fill="none" stroke="#1a1a1a" stroke-width="2" stroke-linecap="round" stroke-linejoin="round"/></g>undefinedundefinedundefined</g><g id="0YbrtqMv9AN"><g transform="translate(1040 90)"><ellipse cx="75.00000003841373" cy="31.07897509239359" rx="75.00000003841373" ry="31.07897509239359" fill="rgb(192,109,105)" stroke="#904640" stroke-width="2" stroke-linecap="round" stroke-linejoin="round" stroke-dasharray="0 0"/></g><g transform="translate(1089.8700000384138, 108.57897509239359) rotate(0, 25.13, 12.5)" width="50.26" height="25"><text text-decoration="none" x="0.004999999999999005" fill="#ffffff" font-size="14pt" font-family="noto_regular"  y="20">result</text><text text-decoration="none" x="50.254999999999995" fill="#4b4b4b" font-size="10pt" font-family="noto_regular"  y="20"></text></g></g><g id="8tjHkC1vehC"><g><path d="M 1220,250 L 1175,140" fill="none" stroke="#1a1a1a" stroke-width="2" stroke-linecap="round" stroke-linejoin="round" stroke-dasharray="0 0"/></g></g><g id="OaQf5dF0exD"><g transform="translate(2650.0000000000005 349.6580800000002)"><ellipse cx="114.99999999999977" cy="30" rx="114.99999999999977" ry="30" fill="rgb(196,231,236)" stroke="#578598" stroke-width="2" stroke-linecap="round" stroke-linejoin="round" stroke-dasharray="0 0"/></g><g transform="translate(2728.605, 367.1580800000002) rotate(0, 36.395, 12.5)" width="72.79" height="25"><text text-decoration="none" x="0.004375000000003126" fill="#3b5865" font-size="14pt" font-family="noto_regular"  y="20">answers</text><text text-decoration="none" x="72.78562500000001" fill="#4b4b4b" font-size="10pt" font-family="noto_regular"  y="20"></text></g></g><g id="gQ7gSqZNACm"><g><path d="M 2501,408 L 2650,380" fill="none" stroke="#1a1a1a" stroke-width="2" stroke-linecap="round" stroke-linejoin="round" stroke-dasharray="0 0"/></g></g></svg>